<svg id="visual" viewBox="0 0 1920 1080" width="1920" height="1080" xmlns="http://www.w3.org/2000/svg" xmlns:xlink="http://www.w3.org/1999/xlink" version="1.1"><path d="M0 98L80 117.8C160 137.7 320 177.3 480 193.5C640 209.7 800 202.3 960 188C1120 173.7 1280 152.3 1440 132.7C1600 113 1760 95 1840 86L1920 77L1920 0L1840 0C1760 0 1600 0 1440 0C1280 0 1120 0 960 0C800 0 640 0 480 0C320 0 160 0 80 0L0 0Z" fill="#6198ff"></path><path d="M0 357L80 394.8C160 432.7 320 508.3 480 522.8C640 537.3 800 490.7 960 461.8C1120 433 1280 422 1440 420.2C1600 418.3 1760 425.7 1840 429.3L1920 433L1920 75L1840 84C1760 93 1600 111 1440 130.7C1280 150.3 1120 171.7 960 186C800 200.3 640 207.7 480 191.5C320 175.3 160 135.7 80 115.8L0 96Z" fill="#3c80ff"></path><path d="M0 725L80 746.5C160 768 320 811 480 805.5C640 800 800 746 960 744.2C1120 742.3 1280 792.7 1440 796.3C1600 800 1760 757 1840 735.5L1920 714L1920 431L1840 427.3C1760 423.7 1600 416.3 1440 418.2C1280 420 1120 431 960 459.8C800 488.7 640 535.3 480 520.8C320 506.3 160 430.7 80 392.8L0 355Z" fill="#0066ff"></path><path d="M0 962L80 965.7C160 969.3 320 976.7 480 967.7C640 958.7 800 933.3 960 938.7C1120 944 1280 980 1440 978.2C1600 976.3 1760 936.7 1840 916.8L1920 897L1920 712L1840 733.5C1760 755 1600 798 1440 794.3C1280 790.7 1120 740.3 960 742.2C800 744 640 798 480 803.5C320 809 160 766 80 744.5L0 723Z" fill="#0059dd"></path><path d="M0 1081L80 1081C160 1081 320 1081 480 1081C640 1081 800 1081 960 1081C1120 1081 1280 1081 1440 1081C1600 1081 1760 1081 1840 1081L1920 1081L1920 895L1840 914.8C1760 934.7 1600 974.3 1440 976.2C1280 978 1120 942 960 936.7C800 931.3 640 956.7 480 965.7C320 974.7 160 967.3 80 963.7L0 960Z" fill="#004cbb"></path></svg>